<svg width="45" height="46" viewBox="0 0 45 46" fill="none" xmlns="http://www.w3.org/2000/svg">
<path d="M33.9893 21.5798H23.9065V11.51C23.9065 11.1375 23.7583 10.7803 23.4946 10.5169C23.2309 10.2536 22.8732 10.1056 22.5002 10.1056C22.1273 10.1056 21.7696 10.2536 21.5059 10.5169C21.2421 10.7803 21.094 11.1375 21.094 11.51V21.5798H11.0112C10.6382 21.5798 10.2805 21.7278 10.0168 21.9912C9.75308 22.2546 9.60492 22.6118 9.60492 22.9843C9.60492 23.3567 9.75308 23.714 10.0168 23.9774C10.2805 24.2407 10.6382 24.3887 11.0112 24.3887H21.094V34.4585C21.094 34.831 21.2421 35.1882 21.5059 35.4516C21.7696 35.715 22.1273 35.8629 22.5002 35.8629C22.8732 35.8629 23.2309 35.715 23.4946 35.4516C23.7583 35.1882 23.9065 34.831 23.9065 34.4585V24.3887H33.9893C34.3622 24.3887 34.7199 24.2407 34.9837 23.9774C35.2474 23.714 35.3955 23.3567 35.3955 22.9843C35.3955 22.6118 35.2474 22.2546 34.9837 21.9912C34.7199 21.7278 34.3622 21.5798 33.9893 21.5798Z" fill="#4B8FF5"/>
<path d="M22.5 0.513245C18.0499 0.513245 13.6998 1.83114 9.99968 4.30029C6.29957 6.76943 3.41569 10.2789 1.71272 14.3849C0.00974882 18.491 -0.435826 23.0091 0.432341 27.3681C1.30051 31.727 3.44343 35.731 6.59011 38.8736C9.73679 42.0162 13.7459 44.1564 18.1105 45.0234C22.475 45.8905 26.999 45.4455 31.1104 43.7447C35.2217 42.0439 38.7357 39.1638 41.2081 35.4684C43.6804 31.7731 45 27.4286 45 22.9842C45 17.0245 42.6295 11.309 38.4099 7.09484C34.1903 2.88072 28.4674 0.513245 22.5 0.513245ZM22.5 42.6463C18.6062 42.6463 14.7998 41.4932 11.5622 39.3327C8.32463 37.1722 5.80123 34.1014 4.31113 30.5086C2.82103 26.9158 2.43115 22.9624 3.1908 19.1483C3.95045 15.3343 5.8255 11.8308 8.57884 9.08101C11.3322 6.33122 14.8402 4.45859 18.6592 3.69992C22.4782 2.94125 26.4367 3.33063 30.0341 4.81881C33.6315 6.30698 36.7063 8.82712 38.8696 12.0605C41.0328 15.294 42.1875 19.0954 42.1875 22.9842C42.1875 28.1989 40.1133 33.2001 36.4212 36.8874C32.729 40.5748 27.7215 42.6463 22.5 42.6463Z" fill="#4B8FF5"/>
</svg>
