<svg width="27" height="26" viewBox="0 0 27 26" fill="none" xmlns="http://www.w3.org/2000/svg">
<path d="M11.822 1.04727C11.9764 0.732901 12.2152 0.46822 12.5114 0.283149C12.8076 0.098079 13.1494 0 13.4982 0C13.8469 0 14.1887 0.098079 14.4849 0.283149C14.7811 0.46822 15.0199 0.732901 15.1743 1.04727L18.3335 7.48251L25.3975 8.51608C25.7429 8.56615 26.0674 8.71238 26.3343 8.93823C26.6013 9.16407 26.8 9.46052 26.9081 9.79402C27.0161 10.1275 27.0292 10.4848 26.9458 10.8254C26.8624 11.1659 26.6858 11.4762 26.436 11.7212L21.3224 16.7303L22.5291 23.8024C22.5882 24.1481 22.5499 24.5035 22.4186 24.8284C22.2872 25.1534 22.068 25.4348 21.7857 25.641C21.5034 25.8472 21.1694 25.9699 20.8214 25.9951C20.4734 26.0204 20.1253 25.9472 19.8165 25.7839L13.4982 22.4431L7.17982 25.7839C6.87103 25.9472 6.52294 26.0204 6.17494 25.9951C5.82694 25.9699 5.49291 25.8472 5.21065 25.641C4.92839 25.4348 4.70916 25.1534 4.57778 24.8284C4.4464 24.5035 4.40809 24.1481 4.46721 23.8024L5.67189 16.7303L0.56238 11.7191C0.31328 11.4742 0.137213 11.1642 0.0540431 10.8241C-0.0291265 10.484 -0.0160882 10.1273 0.0916871 9.7942C0.199462 9.46113 0.397685 9.16497 0.66399 8.93913C0.930295 8.71329 1.25408 8.56676 1.59882 8.51608L8.66075 7.48251L11.822 1.04727ZM13.4961 2.35228L10.4761 8.50564C10.342 8.77856 10.144 9.01464 9.89901 9.19359C9.65407 9.37254 9.36955 9.48899 9.06993 9.53294L2.31332 10.5206L7.20267 15.3105C7.41951 15.5234 7.5816 15.7861 7.67495 16.076C7.76831 16.3659 7.79013 16.6743 7.73855 16.9746L6.58579 23.7398L12.63 20.5451C12.8981 20.4035 13.1964 20.3296 13.4992 20.3296C13.802 20.3296 14.1003 20.4035 14.3684 20.5451L20.4126 23.7398L19.2578 16.9746C19.2062 16.6743 19.228 16.3659 19.3214 16.076C19.4147 15.7861 19.5768 15.5234 19.7937 15.3105L24.683 10.5206L17.9264 9.53294C17.6268 9.48899 17.3423 9.37254 17.0973 9.19359C16.8524 9.01464 16.6544 8.77856 16.5203 8.50564L13.4961 2.35228Z" fill="#0660E7"/>
</svg>
