<svg width="28" height="28" viewBox="0 0 28 28" fill="none" xmlns="http://www.w3.org/2000/svg">
<path d="M13.9999 25.6667C7.55642 25.6667 2.33325 20.4435 2.33325 14C2.33325 7.55654 7.55642 2.33337 13.9999 2.33337C20.4434 2.33337 25.6666 7.55654 25.6666 14C25.6666 20.4435 20.4434 25.6667 13.9999 25.6667ZM13.9999 23.3334C16.4753 23.3334 18.8492 22.35 20.5996 20.5997C22.3499 18.8494 23.3333 16.4754 23.3333 14C23.3333 11.5247 22.3499 9.15072 20.5996 7.40038C18.8492 5.65004 16.4753 4.66671 13.9999 4.66671C11.5246 4.66671 9.15059 5.65004 7.40026 7.40038C5.64992 9.15072 4.66659 11.5247 4.66659 14C4.66659 16.4754 5.64992 18.8494 7.40026 20.5997C9.15059 22.35 11.5246 23.3334 13.9999 23.3334ZM9.91658 16.3334H16.3333C16.488 16.3334 16.6363 16.2719 16.7457 16.1625C16.8551 16.0531 16.9166 15.9047 16.9166 15.75C16.9166 15.5953 16.8551 15.447 16.7457 15.3376C16.6363 15.2282 16.488 15.1667 16.3333 15.1667H11.6666C10.893 15.1667 10.1512 14.8594 9.60419 14.3124C9.05721 13.7655 8.74992 13.0236 8.74992 12.25C8.74992 11.4765 9.05721 10.7346 9.60419 10.1876C10.1512 9.64066 10.893 9.33337 11.6666 9.33337H12.8333V7.00004H15.1666V9.33337H18.0833V11.6667H11.6666C11.5119 11.6667 11.3635 11.7282 11.2541 11.8376C11.1447 11.947 11.0833 12.0953 11.0833 12.25C11.0833 12.4047 11.1447 12.5531 11.2541 12.6625C11.3635 12.7719 11.5119 12.8334 11.6666 12.8334H16.3333C17.1068 12.8334 17.8487 13.1407 18.3956 13.6876C18.9426 14.2346 19.2499 14.9765 19.2499 15.75C19.2499 16.5236 18.9426 17.2655 18.3956 17.8124C17.8487 18.3594 17.1068 18.6667 16.3333 18.6667H15.1666V21H12.8333V18.6667H9.91658V16.3334Z" fill="#0660E7"/>
</svg>
