<svg width="18" height="18" viewBox="0 0 18 18" fill="none" xmlns="http://www.w3.org/2000/svg">
<path d="M9 17.5001C4.16738 17.5001 0.25 13.5827 0.25 8.75012C0.25 3.9175 4.16738 0.00012207 9 0.00012207C13.8326 0.00012207 17.75 3.9175 17.75 8.75012C17.75 13.5827 13.8326 17.5001 9 17.5001ZM9 15.7501C10.8565 15.7501 12.637 15.0126 13.9497 13.6999C15.2625 12.3871 16 10.6066 16 8.75012C16 6.89361 15.2625 5.11313 13.9497 3.80037C12.637 2.48762 10.8565 1.75012 9 1.75012C7.14348 1.75012 5.36301 2.48762 4.05025 3.80037C2.7375 5.11313 2 6.89361 2 8.75012C2 10.6066 2.7375 12.3871 4.05025 13.6999C5.36301 15.0126 7.14348 15.7501 9 15.7501ZM5.9375 10.5001H10.75C10.866 10.5001 10.9773 10.454 11.0594 10.372C11.1414 10.2899 11.1875 10.1787 11.1875 10.0626C11.1875 9.94659 11.1414 9.83531 11.0594 9.75326C10.9773 9.67122 10.866 9.62512 10.75 9.62512H7.25C6.66984 9.62512 6.11344 9.39465 5.7032 8.98442C5.29297 8.57418 5.0625 8.01778 5.0625 7.43762C5.0625 6.85746 5.29297 6.30106 5.7032 5.89083C6.11344 5.48059 6.66984 5.25012 7.25 5.25012H8.125V3.50012H9.875V5.25012H12.0625V7.00012H7.25C7.13397 7.00012 7.02269 7.04622 6.94064 7.12826C6.85859 7.21031 6.8125 7.32159 6.8125 7.43762C6.8125 7.55365 6.85859 7.66493 6.94064 7.74698C7.02269 7.82903 7.13397 7.87512 7.25 7.87512H10.75C11.3302 7.87512 11.8866 8.10559 12.2968 8.51583C12.707 8.92606 12.9375 9.48246 12.9375 10.0626C12.9375 10.6428 12.707 11.1992 12.2968 11.6094C11.8866 12.0197 11.3302 12.2501 10.75 12.2501H9.875V14.0001H8.125V12.2501H5.9375V10.5001Z" fill="#0660E7"/>
</svg>
