<svg width="21" height="20" viewBox="0 0 21 20" fill="none" xmlns="http://www.w3.org/2000/svg">
<path d="M9.61674 1.03545C9.73254 0.799676 9.91164 0.601165 10.1338 0.462362C10.356 0.323559 10.6123 0.25 10.8739 0.25C11.1354 0.25 11.3918 0.323559 11.6139 0.462362C11.8361 0.601165 12.0152 0.799676 12.131 1.03545L14.5004 5.86189L19.7984 6.63706C20.0574 6.67461 20.3008 6.78428 20.501 6.95367C20.7012 7.12305 20.8503 7.34539 20.9313 7.59551C21.0124 7.84564 21.0221 8.11358 20.9596 8.36901C20.897 8.62445 20.7646 8.85718 20.5773 9.04088L16.742 12.7977L17.6471 18.1018C17.6914 18.3611 17.6627 18.6276 17.5642 18.8713C17.4656 19.115 17.3012 19.3261 17.0895 19.4808C16.8778 19.6354 16.6273 19.7274 16.3663 19.7463C16.1053 19.7653 15.8442 19.7104 15.6126 19.5879L10.8739 17.0823L6.13511 19.5879C5.90352 19.7104 5.64245 19.7653 5.38145 19.7463C5.12045 19.7274 4.86993 19.6354 4.65823 19.4808C4.44654 19.3261 4.28212 19.115 4.18358 18.8713C4.08504 18.6276 4.05631 18.3611 4.10065 18.1018L5.00416 12.7977L1.17203 9.03931C0.985204 8.85565 0.853154 8.62317 0.790777 8.36808C0.728399 8.11299 0.738178 7.84545 0.819009 7.59565C0.899841 7.34585 1.04851 7.12372 1.24824 6.95435C1.44797 6.78497 1.69081 6.67507 1.94936 6.63706L7.24581 5.86189L9.61674 1.03545ZM10.8723 2.01421L8.6073 6.62923C8.50673 6.83392 8.35821 7.01098 8.1745 7.14519C7.99079 7.2794 7.7774 7.36674 7.55269 7.3997L2.48524 8.14042L6.15225 11.7328C6.31488 11.8925 6.43644 12.0896 6.50646 12.307C6.57647 12.5245 6.59284 12.7557 6.55415 12.981L5.68959 18.0548L10.2227 15.6588C10.4238 15.5527 10.6475 15.4972 10.8747 15.4972C11.1018 15.4972 11.3255 15.5527 11.5266 15.6588L16.0597 18.0548L15.1936 12.981C15.1549 12.7557 15.1713 12.5245 15.2413 12.307C15.3113 12.0896 15.4329 11.8925 15.5955 11.7328L19.2625 8.14042L14.1951 7.3997C13.9703 7.36674 13.757 7.2794 13.5732 7.14519C13.3895 7.01098 13.241 6.83392 13.1404 6.62923L10.8723 2.01421Z" fill="#0660E7"/>
</svg>
