<svg width="18" height="18" viewBox="0 0 18 18" fill="none" xmlns="http://www.w3.org/2000/svg">
<path d="M9.24101 0.00012207C4.41101 0.00012207 0.499756 3.92012 0.499756 8.75012C0.499756 13.5801 4.41101 17.5001 9.24101 17.5001C14.0798 17.5001 17.9998 13.5801 17.9998 8.75012C17.9998 3.92012 14.0798 0.00012207 9.24101 0.00012207ZM9.24976 15.7501C5.38226 15.7501 2.24976 12.6176 2.24976 8.75012C2.24976 4.88262 5.38226 1.75012 9.24976 1.75012C13.1173 1.75012 16.2498 4.88262 16.2498 8.75012C16.2498 12.6176 13.1173 15.7501 9.24976 15.7501ZM9.05726 4.37512H9.00476C8.65476 4.37512 8.37476 4.65512 8.37476 5.00512V9.13512C8.37476 9.44137 8.53226 9.73012 8.80351 9.88762L12.4348 12.0664C12.7323 12.2414 13.1173 12.1539 13.2923 11.8564C13.3362 11.7855 13.3654 11.7066 13.3782 11.6242C13.391 11.5418 13.387 11.4577 13.3666 11.3768C13.3462 11.296 13.3097 11.2201 13.2594 11.1537C13.209 11.0872 13.1458 11.0316 13.0735 10.9901L9.68726 8.97762V5.00512C9.68726 4.65512 9.40726 4.37512 9.05726 4.37512Z" fill="#0660E7"/>
</svg>
