<svg width="28" height="28" viewBox="0 0 28 28" fill="none" xmlns="http://www.w3.org/2000/svg">
<path d="M13.9883 2.33337C7.54825 2.33337 2.33325 7.56004 2.33325 14C2.33325 20.44 7.54825 25.6667 13.9883 25.6667C20.4399 25.6667 25.6666 20.44 25.6666 14C25.6666 7.56004 20.4399 2.33337 13.9883 2.33337ZM13.9999 23.3334C8.84325 23.3334 4.66659 19.1567 4.66659 14C4.66659 8.84337 8.84325 4.66671 13.9999 4.66671C19.1566 4.66671 23.3333 8.84337 23.3333 14C23.3333 19.1567 19.1566 23.3334 13.9999 23.3334ZM13.7433 8.16671H13.6733C13.2066 8.16671 12.8333 8.54004 12.8333 9.00671V14.5134C12.8333 14.9217 13.0433 15.3067 13.4049 15.5167L18.2466 18.4217C18.6433 18.655 19.1566 18.5384 19.3899 18.1417C19.4485 18.0472 19.4875 17.9419 19.5045 17.8321C19.5215 17.7223 19.5163 17.6101 19.4891 17.5023C19.4619 17.3946 19.4132 17.2934 19.3461 17.2048C19.2789 17.1162 19.1947 17.042 19.0983 16.9867L14.5833 14.3034V9.00671C14.5833 8.54004 14.2099 8.16671 13.7433 8.16671Z" fill="#0660E7"/>
</svg>
