<svg width="40" height="40" viewBox="0 0 40 40" fill="none" xmlns="http://www.w3.org/2000/svg">
<path d="M34.8089 7.86038H5.40042C4.75045 7.86038 4.1271 8.11858 3.6675 8.57818C3.20791 9.03778 2.94971 9.66112 2.94971 10.3111V29.9168C2.94971 30.5667 3.20791 31.1901 3.6675 31.6497C4.1271 32.1093 4.75045 32.3675 5.40042 32.3675H34.8089C35.4589 32.3675 36.0823 32.1093 36.5419 31.6497C37.0015 31.1901 37.2597 30.5667 37.2597 29.9168V10.3111C37.2597 9.66112 37.0015 9.03778 36.5419 8.57818C36.0823 8.11858 35.4589 7.86038 34.8089 7.86038ZM32.1132 10.3111L20.1047 18.619L8.0962 10.3111H32.1132ZM5.40042 29.9168V11.4262L19.4062 21.1187C19.6113 21.261 19.855 21.3373 20.1047 21.3373C20.3543 21.3373 20.598 21.261 20.8031 21.1187L34.8089 11.4262V29.9168H5.40042Z" fill="#050505"/>
</svg>
