<svg width="21" height="20" viewBox="0 0 21 20" fill="none" xmlns="http://www.w3.org/2000/svg">
<path d="M17.8125 3.65625H3.1875C2.86427 3.65625 2.55427 3.78465 2.32571 4.01321C2.09715 4.24177 1.96875 4.55177 1.96875 4.875V14.625C1.96875 14.9482 2.09715 15.2582 2.32571 15.4868C2.55427 15.7153 2.86427 15.8437 3.1875 15.8437H17.8125C18.1357 15.8437 18.4457 15.7153 18.6743 15.4868C18.9028 15.2582 19.0312 14.9482 19.0312 14.625V4.875C19.0312 4.55177 18.9028 4.24177 18.6743 4.01321C18.4457 3.78465 18.1357 3.65625 17.8125 3.65625ZM16.4719 4.875L10.5 9.00656L4.52812 4.875H16.4719ZM3.1875 14.625V5.42953L10.1527 10.2497C10.2547 10.3205 10.3758 10.3584 10.5 10.3584C10.6241 10.3584 10.7453 10.3205 10.8473 10.2497L17.8125 5.42953V14.625H3.1875Z" fill="white"/>
</svg>
