<svg width="145" height="144" viewBox="0 0 145 144" fill="none" xmlns="http://www.w3.org/2000/svg">
<path d="M55.6114 72.3825L56.9567 75.9025L56.9383 72.3808L55.6114 72.3825Z" fill="black"/>
<path d="M59.2162 78.072L53.7466 78.1027L53.7394 77.0478L59.209 77.0172C59.4136 77.0202 59.6166 76.9827 59.8065 76.9069C59.9963 76.8311 60.1692 76.7184 60.3152 76.5754C60.4612 76.4324 60.5774 76.2619 60.6571 76.0737C60.7369 75.8854 60.7786 75.6832 60.7798 75.4786L60.7661 72.3737L61.8208 72.3689L61.8772 75.4657C61.8776 75.813 61.8086 76.1567 61.6744 76.4767C61.5401 76.7967 61.3434 77.0865 61.0956 77.3292C60.8477 77.5719 60.5539 77.7627 60.2312 77.8902C59.9085 78.0178 59.5634 78.0796 59.2162 78.072Z" fill="black"/>
<path d="M134.835 69.6958L128.337 69.638L127.321 65.4753L125.739 65.4571L117.736 65.3736L117.721 67.8317L126.329 67.9137L126.755 69.6198L117.697 69.5411L117.674 71.9907L134.821 72.1539L134.835 69.6958Z" fill="#0A0A0A"/>
<path d="M10.2791 63.6356L10.1656 82.3223L12.0793 82.3358L12.1712 66.9067L44.083 67.1717L44.1047 63.9141L10.2791 63.6356Z" fill="#212121"/>
<path d="M12.1055 77.6747L12.1712 66.9067L31.5718 67.0703L12.1055 77.6747Z" fill="#0A0A0A"/>
<path d="M87.3554 73.3176L46.4972 72.8476L43.966 70.6239L44.0084 63.2835L46.825 61.334L87.4378 61.6566L87.3554 73.3176Z" fill="#121212"/>
<path d="M65.7758 63.2192L65.755 66.3748L50.582 66.2002L50.5767 66.7786L65.7497 66.9531L76.9593 67.0821L76.994 63.3398L65.7758 63.2192Z" fill="black"/>
<path d="M117.233 74.665L87.7106 74.453L87.3255 71.9478L87.3812 63.1786L87.8891 60.6921L117.454 60.8621L117.233 74.665Z" fill="#C66327"/>
<path d="M87.7912 104.328C83.9385 106.112 79.9925 107.87 76.1486 109.612C71.1877 98.5196 68.3494 86.5996 67.781 74.4704C72.0818 74.2137 76.3937 73.9684 80.7169 73.7346C81.138 84.2812 83.5377 94.6591 87.7912 104.328Z" fill="#141414"/>
<path d="M79.396 107.982C78.7382 108.289 78.0634 108.596 77.3972 108.895C73.3492 99.7774 70.747 90.0874 69.6846 80.1744L71.8644 79.9273C72.9007 89.6106 75.4418 99.0762 79.396 107.982Z" fill="#303030"/>
<path d="M82.9664 106.373L80.9928 107.312C77.0958 98.5539 74.5932 89.243 73.576 79.7173L75.7471 79.4956C76.7322 88.7744 79.1683 97.8441 82.9664 106.373Z" fill="#303030"/>
<path d="M86.5624 104.756L84.5551 105.66C80.8362 97.2904 78.4585 88.3899 77.5098 79.2862L79.6896 79.0391C80.624 87.9147 82.943 96.5921 86.5624 104.756Z" fill="#303030"/>
<path d="M115.507 68.1295L89.1567 68.0135L89.1654 67.0779L115.516 67.2109L115.507 68.1295Z" fill="#291814"/>
<path d="M141.937 68.9937L134.828 68.9268L134.8 72.8601L141.909 72.927L141.937 68.9937Z" fill="#0A0A0A"/>
<path d="M117.454 60.8621L117.233 74.665L118.21 74.7528L118.517 60.9509L117.454 60.8621Z" fill="#0A0A0A"/>
<path d="M76.5752 63.6063L66.231 63.509L66.2104 66.3838L76.5546 66.4811L76.5752 63.6063Z" fill="#303030"/>
<path d="M134.542 60.5486L132.617 60.5298L132.546 70.0683L134.47 70.0871L134.542 60.5486Z" fill="#0A0A0A"/>
<path d="M82.5749 73.1033L66.8183 72.922L66.7842 76.6026L82.5408 76.7839L82.5749 73.1033Z" fill="#0A0A0A"/>
<path d="M51.1937 91.0877L46.1917 91.1323C46.008 91.1324 45.8263 91.0931 45.6588 91.0172C45.4913 90.9413 45.3419 90.8304 45.2207 90.692C45.0995 90.5536 45.0092 90.3909 44.9561 90.2149C44.9029 90.0389 44.888 89.8536 44.9124 89.6715L47.1181 72.8462L54.6708 72.9161L52.4629 89.9625C52.4243 90.2725 52.2743 90.5576 52.0407 90.7646C51.8072 90.9717 51.5061 91.0865 51.1937 91.0877Z" fill="#422721"/>
<path d="M50.5641 87.4228L47.4678 87.4382C47.3087 87.4374 47.1514 87.4029 47.0063 87.3371C46.8613 87.2713 46.7316 87.1757 46.626 87.0565C46.5203 86.9372 46.4409 86.7971 46.3931 86.6451C46.3452 86.4932 46.3299 86.333 46.3482 86.175L47.7393 75.5753C47.7732 75.3066 47.9046 75.0599 48.1085 74.8819C48.3124 74.704 48.5746 74.6072 48.8455 74.6098L51.9334 74.5858C52.2511 74.6058 52.5482 74.7509 52.7596 74.9893C52.9711 75.2277 53.0796 75.5399 53.0614 75.8577L51.6703 86.4573C51.6339 86.725 51.5018 86.9702 51.2985 87.1477C51.0952 87.3252 50.8343 87.4229 50.5641 87.4228Z" fill="#301D18"/>
<path d="M92.846 63.6753C92.8428 63.841 92.7907 64.002 92.6962 64.1381C92.6018 64.2742 92.4692 64.3793 92.3152 64.4402C92.1611 64.501 91.9924 64.5151 91.8302 64.4804C91.6679 64.4458 91.5194 64.3641 91.4033 64.2455C91.2871 64.1269 91.2085 63.9767 91.1773 63.8138C91.146 63.6509 91.1635 63.4825 91.2276 63.3298C91.2917 63.177 91.3995 63.0466 91.5375 62.9551C91.6755 62.8635 91.8376 62.8147 92.0034 62.8149C92.2286 62.8185 92.4436 62.9108 92.6014 63.072C92.7593 63.2331 92.8472 63.4499 92.846 63.6753Z" fill="#1C110E"/>
<path d="M96.6764 64.2892C96.9976 64.6171 97.523 64.6231 97.8501 64.3027C98.1772 63.9823 98.1821 63.4569 97.861 63.129C97.5399 62.8012 97.0144 62.7951 96.6873 63.1155C96.3602 63.4359 96.3553 63.9614 96.6764 64.2892Z" fill="#1C110E"/>
<path d="M103.375 63.7794C103.377 63.8919 103.356 64.0035 103.313 64.1075C103.271 64.2115 103.207 64.3057 103.127 64.3843C103.047 64.4629 102.951 64.5244 102.846 64.5649C102.741 64.6055 102.629 64.6242 102.517 64.6201C102.404 64.6234 102.292 64.6033 102.187 64.5609C102.082 64.5186 101.987 64.455 101.908 64.3742C101.828 64.2934 101.767 64.197 101.727 64.0913C101.687 63.9855 101.669 63.8727 101.674 63.7598C101.675 63.6481 101.698 63.5378 101.742 63.4351C101.786 63.3324 101.849 63.2393 101.929 63.1613C102.009 63.0832 102.103 63.0216 102.207 62.9801C102.31 62.9385 102.421 62.9178 102.533 62.9191C102.644 62.9204 102.755 62.9436 102.858 62.9876C102.96 63.0315 103.054 63.0952 103.132 63.1751C103.21 63.255 103.272 63.3495 103.314 63.4532C103.355 63.5568 103.376 63.6677 103.375 63.7794Z" fill="#1C110E"/>
<path d="M108.648 63.8401C108.643 64.0023 108.59 64.1593 108.496 64.2915C108.402 64.4237 108.271 64.5254 108.12 64.5839C107.968 64.6424 107.803 64.6552 107.644 64.6207C107.486 64.5862 107.34 64.5059 107.227 64.3898C107.113 64.2737 107.036 64.1268 107.005 63.9673C106.973 63.8079 106.99 63.6429 107.051 63.4929C107.113 63.3428 107.217 63.2142 107.351 63.123C107.485 63.0318 107.644 62.982 107.806 62.9798C107.918 62.9782 108.03 62.9996 108.134 63.0425C108.238 63.0855 108.332 63.1491 108.411 63.2296C108.49 63.31 108.552 63.4056 108.593 63.5106C108.633 63.6155 108.652 63.7276 108.648 63.8401Z" fill="#1C110E"/>
<path d="M113.922 63.9007C113.916 64.063 113.863 64.2199 113.769 64.3522C113.675 64.4844 113.544 64.586 113.393 64.6446C113.242 64.7031 113.076 64.7159 112.918 64.6814C112.759 64.6469 112.614 64.5666 112.5 64.4504C112.386 64.3343 112.309 64.1874 112.278 64.028C112.246 63.8686 112.263 63.7036 112.324 63.5535C112.386 63.4034 112.49 63.2748 112.624 63.1836C112.759 63.0924 112.917 63.0426 113.079 63.0404C113.191 63.0389 113.303 63.0602 113.407 63.1032C113.511 63.1461 113.606 63.2097 113.684 63.2902C113.763 63.3707 113.825 63.4663 113.866 63.5712C113.906 63.6762 113.925 63.7883 113.922 63.9007Z" fill="#1C110E"/>
<path d="M109.979 66.1775C110.3 66.5053 110.826 66.5114 111.153 66.191C111.48 65.8706 111.485 65.3451 111.164 65.0173C110.843 64.6894 110.317 64.6834 109.99 65.0038C109.663 65.3242 109.658 65.8497 109.979 66.1775Z" fill="#1C110E"/>
<path d="M106.038 65.5538C106.04 65.6663 106.019 65.7779 105.976 65.8819C105.934 65.9859 105.87 66.08 105.79 66.1587C105.71 66.2373 105.614 66.2988 105.509 66.3393C105.404 66.3798 105.292 66.3986 105.18 66.3945C104.955 66.391 104.74 66.2986 104.582 66.1375C104.424 65.9763 104.336 65.7595 104.337 65.5342C104.338 65.4225 104.361 65.3122 104.405 65.2095C104.449 65.1068 104.512 65.0137 104.592 64.9356C104.672 64.8576 104.766 64.796 104.87 64.7544C104.973 64.7129 105.084 64.6922 105.196 64.6935C105.307 64.6947 105.418 64.718 105.521 64.7619C105.623 64.8059 105.716 64.8696 105.795 64.9495C105.873 65.0294 105.935 65.1239 105.977 65.2275C106.018 65.3312 106.039 65.4421 106.038 65.5538Z" fill="#1C110E"/>
<path d="M100.689 65.4667C100.683 65.629 100.63 65.786 100.536 65.9182C100.442 66.0504 100.312 66.1521 100.16 66.2106C100.009 66.2691 99.8436 66.2819 99.6848 66.2474C99.5261 66.2129 99.3808 66.1326 99.2671 66.0164C99.1533 65.9003 99.0761 65.7534 99.0449 65.594C99.0137 65.4346 99.0299 65.2696 99.0915 65.1195C99.1532 64.9694 99.2575 64.8408 99.3917 64.7496C99.5258 64.6584 99.6839 64.6086 99.8462 64.6064C99.9587 64.6049 100.07 64.6262 100.174 64.6692C100.279 64.7121 100.373 64.7758 100.452 64.8562C100.53 64.9367 100.592 65.0323 100.633 65.1372C100.674 65.2422 100.693 65.3543 100.689 65.4667Z" fill="#1C110E"/>
<path d="M95.4836 65.4239C95.4781 65.5861 95.425 65.7431 95.331 65.8753C95.2371 66.0075 95.1063 66.1092 94.955 66.1677C94.8036 66.2262 94.6384 66.239 94.4796 66.2045C94.3209 66.17 94.1756 66.0897 94.0619 65.9736C93.9481 65.8575 93.8709 65.7106 93.8397 65.5511C93.8085 65.3917 93.8247 65.2267 93.8863 65.0767C93.948 64.9266 94.0523 64.798 94.1865 64.7068C94.3206 64.6156 94.4787 64.5658 94.641 64.5636C94.7535 64.562 94.8652 64.5834 94.9693 64.6263C95.0733 64.6693 95.1676 64.7329 95.2465 64.8134C95.3253 64.8938 95.3869 64.9894 95.4277 65.0944C95.4685 65.1993 95.4875 65.3114 95.4836 65.4239Z" fill="#1C110E"/>
<path d="M73.3104 59.7163L60.0085 59.5633L58.0605 61.4207L75.2321 61.6268L73.3104 59.7163Z" fill="#050505"/>
<path d="M69.3759 54.6604L64.0596 54.5993L64.0113 59.8075L69.3277 59.8687L69.3759 54.6604Z" fill="#141414"/>
<path d="M64.0414 55.1981L54.0703 55.0834L54.0402 58.331L64.0113 58.4457L64.0414 55.1981Z" fill="black"/>
<path d="M79.3367 55.3708L69.3655 55.2561L69.3355 58.5037L79.3066 58.6184L79.3367 55.3708Z" fill="black"/>
<path d="M54.0912 58.3469L53.3858 59.2064L53.4326 54.1543L54.1219 55.0299L54.0912 58.3469Z" fill="#141414"/>
<path d="M86.6618 62.1364L47.0898 61.6811L47.0853 62.1743L86.6572 62.6295L86.6618 62.1364Z" fill="#5E5E5E"/>
<path d="M63.5507 55.5173L54.4094 55.4121L54.4033 56.0737L63.5445 56.1789L63.5507 55.5173Z" fill="#1C1C1C"/>
<path d="M78.9109 55.7108L69.7697 55.6056L69.7635 56.2671L78.9048 56.3723L78.9109 55.7108Z" fill="#1C1C1C"/>
<path d="M68.9934 54.8977L64.3506 54.8443L64.3441 55.5419L68.9869 55.5953L68.9934 54.8977Z" fill="#5E5E5E"/>
<path d="M43.5286 64.3335L10.7404 63.9563L10.7359 64.4495L43.524 64.8266L43.5286 64.3335Z" fill="#5E5E5E"/>
<path d="M116.592 61.5402L88.3743 61.2156L88.369 61.7809L116.587 62.1055L116.592 61.5402Z" fill="#804B40"/>
<path d="M116.53 68.6724L88.3129 68.3478L88.3077 68.9131L116.525 69.2377L116.53 68.6724Z" fill="#804B40"/>
<path d="M133.837 70.0591L118.73 69.8853L118.722 70.6912L133.829 70.865L133.837 70.0591Z" fill="#5E5E5E"/>
<path d="M141.396 69.518L135.43 69.4494L135.424 70.0989L141.39 70.1675L141.396 69.518Z" fill="#5E5E5E"/>
<path d="M126.717 65.7864L118.767 65.695L118.762 66.2603L126.712 66.3518L126.717 65.7864Z" fill="#5E5E5E"/>
</svg>
