<svg width="45" height="45" viewBox="0 0 45 45" fill="none" xmlns="http://www.w3.org/2000/svg">
<path d="M20.2183 6.29395H6.0485C4.97477 6.29395 3.94502 6.72048 3.18578 7.47972C2.42654 8.23896 2 9.26872 2 10.3424V38.6819C2 39.7557 2.42654 40.7854 3.18578 41.5447C3.94502 42.3039 4.97477 42.7304 6.0485 42.7304H34.388C35.4617 42.7304 36.4915 42.3039 37.2507 41.5447C38.01 40.7854 38.4365 39.7557 38.4365 38.6819V24.5122" stroke="#F8B94E" stroke-width="3" stroke-linecap="round" stroke-linejoin="round"/>
<path d="M35.4 3.25771C36.2053 2.45241 37.2975 2 38.4364 2C39.5752 2 40.6675 2.45241 41.4728 3.25771C42.2781 4.063 42.7305 5.15522 42.7305 6.29408C42.7305 7.43294 42.2781 8.52516 41.4728 9.33046L22.2424 28.5608L14.1454 30.5851L16.1696 22.4881L35.4 3.25771Z" stroke="#F8B94E" stroke-width="3" stroke-linecap="round" stroke-linejoin="round"/>
</svg>
