<svg width="37" height="40" viewBox="0 0 37 40" fill="none" xmlns="http://www.w3.org/2000/svg">
<path d="M13.1699 16.4621V29.6317C13.1699 30.5407 13.907 31.2779 14.8161 31.2779C15.7253 31.2779 16.4623 30.5407 16.4623 29.6317V16.4621C16.4623 15.553 15.7253 14.8159 14.8161 14.8159C13.907 14.8159 13.1699 15.553 13.1699 16.4621Z" fill="#990101"/>
<path d="M21.4001 14.8159C22.3093 14.8159 23.0463 15.553 23.0463 16.4621V29.6317C23.0463 30.5407 22.3093 31.2779 21.4001 31.2779C20.4909 31.2779 19.7539 30.5407 19.7539 29.6317V16.4621C19.7539 15.553 20.4909 14.8159 21.4001 14.8159Z" fill="#990101"/>
<path d="M24.6929 6.58478H34.5701C35.4791 6.58478 36.2163 7.32181 36.2163 8.23097C36.2163 9.14013 35.4791 9.87716 34.5701 9.87716H32.751L30.2722 32.1867C29.809 36.3552 26.2858 39.5087 22.0916 39.5087H14.1246C9.93053 39.5087 6.40715 36.3552 5.94398 32.1867L3.46514 9.87716H1.64619C0.737034 9.87716 0 9.14013 0 8.23097C0 7.32181 0.737034 6.58478 1.64619 6.58478H11.5234C11.5234 2.9481 14.4715 0 18.1081 0C21.7448 0 24.6929 2.9481 24.6929 6.58478ZM18.1081 3.29239C16.2898 3.29239 14.8157 4.76646 14.8157 6.58478H21.4005C21.4005 4.76646 19.9265 3.29239 18.1081 3.29239ZM6.77781 9.87716L9.21622 31.8229C9.49413 34.3241 11.6081 36.2163 14.1246 36.2163H22.0916C24.6081 36.2163 26.722 34.3241 26.9999 31.8229L29.4386 9.87716H6.77781Z" fill="#990101"/>
</svg>
