<svg width="347" height="373" viewBox="0 0 347 373" fill="none" xmlns="http://www.w3.org/2000/svg">
<path d="M42.5313 160.772L20.2749 179.723L25.5482 186.325L43.966 167.49L42.5313 160.772Z" fill="#435E2F"/>
<path opacity="0.4" d="M276.883 350.597C276.883 362.714 214.844 372.5 138.691 372.5C62.5386 372.5 0.499756 362.714 0.499756 350.597C0.499756 338.481 62.5386 328.694 138.691 328.694C214.844 328.694 276.883 338.364 276.883 350.597Z" fill="black"/>
<path d="M130.665 201.82C152.34 180.15 183.902 169.82 201.118 165.549C205.79 164.315 210.721 164.49 215.294 166.051C219.867 167.612 223.879 170.491 226.825 174.325C228.249 176.116 229.1 178.295 229.268 180.578C229.268 188.927 237.023 248.073 230.664 261.51C228.913 265.069 226.725 268.396 224.15 271.413H187.974C187.974 271.413 185.259 269.51 182.894 260.539C180.529 251.568 186.772 225.587 186.772 225.587C186.772 225.587 126.827 268.112 97.5909 268.112L96.1174 204.811L130.665 201.82Z" fill="#4C5E3B"/>
<path d="M156.295 108.228H110.929V80.034L150.634 82.1311L156.295 108.228Z" fill="black"/>
<path d="M86.5013 65.0437L84.2136 74.6359L101.236 96.1116H113.915L119.498 83.6456L108.641 63.9563L86.5013 65.0437Z" fill="#B07F72"/>
<path d="M42.4537 366.092H42.1822C37.4791 366.082 32.9721 364.204 29.6501 360.869C26.3281 357.535 24.4624 353.016 24.4624 348.306V309.743C24.4624 307.951 25.1732 306.232 26.4385 304.965C27.7037 303.697 29.4198 302.986 31.2091 302.986H42.4537C44.243 302.986 45.959 303.697 47.2243 304.965C48.4896 306.232 49.2004 307.951 49.2004 309.743V359.335C49.2004 361.127 48.4896 362.846 47.2243 364.113C45.959 365.38 44.243 366.092 42.4537 366.092Z" fill="#1C1C1C"/>
<path d="M66.106 6.09224H64.8652V63.1796H66.106V6.09224Z" fill="#26361B"/>
<path d="M78.204 66.8689H57.6924V94.9466H78.204V66.8689Z" fill="#26361B"/>
<path d="M71.6117 63.2184H60.561V66.8689H71.6117V63.2184Z" fill="#0E140A"/>
<path d="M67.1917 1.43204H63.7795V6.09223H67.1917V1.43204Z" fill="#141C0E"/>
<path d="M58.9327 372.5H62.8101C67.8118 372.507 72.6546 370.741 76.4801 367.514C80.3056 364.286 82.8667 359.807 83.7095 354.869L97.7845 272.345L99.762 201.898L31.9846 208.966L37.7232 352.112C37.9436 357.596 40.2751 362.782 44.229 366.583C48.183 370.384 53.4523 372.504 58.9327 372.5Z" fill="#4C5E3B"/>
<path d="M243.653 84.8883L234.968 99.3349L246.6 108.228L255.324 90.3641C255.324 90.3641 244.778 85.1213 243.653 84.8883Z" fill="#FFB7A4"/>
<path d="M234.347 96.5388L250.594 108.228L247.065 115.18L229.384 102.325L234.347 96.5388Z" fill="#425E30"/>
<path d="M247.027 115.18C243.149 125.432 236.053 174.675 214.185 167.801C192.936 166.364 149.509 138.209 149.509 138.209C149.509 138.209 166.415 90.2476 168.043 89.1213C172.813 87.5291 202.94 128.772 207.128 128.772C209.532 128.772 227.058 100.772 229.384 102.325C231.711 103.879 246.367 113.121 247.027 115.18Z" fill="#4A6935"/>
<path d="M202.049 160.772L204.491 127.063L207.128 128.772L211.199 124.578L226.476 154.985L202.049 160.772Z" fill="#324724"/>
<path d="M225.391 168.112L208.291 172.655C203.367 173.976 198.714 172.655 197.9 169.549L196.892 165.665C196.077 162.636 199.412 159.102 204.375 157.898L221.513 153.277C226.476 151.956 231.129 153.277 231.944 156.383L232.952 160.267C233.688 163.257 230.315 166.791 225.391 168.112Z" fill="black"/>
<path d="M41.7171 128.772L39.856 192.617L43.966 198.403L130.665 194.481L134.814 190.636L159.63 114.442L149.975 105.005L47.8047 109.937L41.7171 128.772Z" fill="#121212"/>
<path d="M87.7809 189.898H79.0179C78.4597 189.904 77.9068 189.788 77.3971 189.56C76.8874 189.332 76.433 188.996 76.0648 188.576C75.6967 188.155 75.4235 187.66 75.264 187.124C75.1044 186.589 75.0623 186.025 75.1405 185.471L78.7853 151.723H96.35L92.7053 185.471C92.5557 186.68 91.9749 187.793 91.07 188.607C90.165 189.421 88.9969 189.879 87.7809 189.898Z" fill="black"/>
<path d="M94.1784 157.238H79.6768C79.3623 157.24 79.0508 157.175 78.7633 157.048C78.4758 156.92 78.2188 156.732 78.0096 156.497C77.8004 156.261 77.6438 155.984 77.5501 155.683C77.4565 155.382 77.428 155.065 77.4667 154.752L78.0483 150.053H97.4354L96.9314 154.752C96.84 155.426 96.5133 156.045 96.0093 156.5C95.5053 156.955 94.8566 157.217 94.1784 157.238Z" fill="#212121"/>
<path d="M144.702 141.005H124.306C123.924 141.017 123.544 140.943 123.194 140.789C122.844 140.635 122.533 140.404 122.283 140.113C122.034 139.823 121.853 139.48 121.754 139.11C121.654 138.74 121.639 138.352 121.708 137.976L123.57 124.772H149.936L148.114 137.82C148.021 138.673 147.626 139.464 146.999 140.048C146.373 140.633 145.557 140.973 144.702 141.005Z" fill="black"/>
<path d="M144.469 131.451H127.253C126.885 131.476 126.516 131.42 126.172 131.287C125.829 131.153 125.518 130.946 125.263 130.68C125.008 130.413 124.814 130.093 124.696 129.744C124.577 129.394 124.537 129.022 124.578 128.655L125.353 123.102H148.618L147.842 128.655C147.67 129.431 147.245 130.126 146.634 130.633C146.023 131.139 145.261 131.427 144.469 131.451Z" fill="#212121"/>
<path d="M57.6924 178.985L132.721 80.9272H138.731L61.9576 186.325L57.6924 178.985Z" fill="#324724"/>
<path opacity="0.4" d="M41.7172 128.655L41.4458 139.49C51.355 143.304 61.6535 146.013 72.155 147.568C84.2913 148.539 119.964 132.461 132.759 128.15C140.299 125.471 148.371 124.646 156.295 125.743L159.63 114.481L149.975 105.044L47.8048 109.937L41.7172 128.655Z" fill="black"/>
<path d="M146.679 45.1602C146.679 45.1602 140.863 87.3738 132.759 90.2087C122.872 95.2184 108.138 82.4417 108.138 82.4417L101.313 60.7718L124.578 41.7815L146.679 45.1602Z" fill="#FFB7A4"/>
<path d="M116.474 59.8786L131.131 87.9563L129.347 91.3349L109.611 65.0437L116.474 59.8786Z" fill="#3B3B3B"/>
<path d="M135.861 92.966H130.82C130.282 92.9261 129.781 92.6757 129.425 92.2687C129.069 91.8618 128.888 91.331 128.92 90.7912V88.5388C128.899 88.0056 129.085 87.4847 129.439 87.0862C129.794 86.6877 130.289 86.4427 130.82 86.4029H135.861C136.392 86.4427 136.887 86.6877 137.242 87.0862C137.596 87.4847 137.782 88.0056 137.761 88.5388V90.7912C137.793 91.331 137.611 91.8618 137.256 92.2687C136.9 92.6757 136.399 92.9261 135.861 92.966Z" fill="#0F0F0F"/>
<path d="M75.3344 63.3349C77.0404 63.9951 63.7021 12.5 103.601 1.70387C144.314 -7.88836 149.354 42.2476 155.597 42.0146C155.171 44.7718 143.461 48.3447 135.124 50.5583C129.52 52.0256 124.356 54.8381 120.08 58.7524C118.91 60.7689 117.283 62.4809 115.329 63.7494C113.375 65.0179 111.151 65.8073 108.835 66.0534C97.614 67.894 86.1135 66.9608 75.3344 63.3349Z" fill="#435E2F"/>
<path d="M147.687 18.9854L152.224 32.6553L144.314 41.1602L133.767 41.7815L127.331 37.3544L125.159 29.9369L127.331 22.8301L137.141 18.9854H147.687Z" fill="#4B8FF5"/>
<path d="M119.033 32.267L74.5586 37.2767L73.6667 43.9951L121.243 38.5583L119.033 32.267Z" fill="#121212"/>
<path d="M124.164 28.4522L117.427 30.3501L119.845 38.9621L126.583 37.0643L124.164 28.4522Z" fill="black"/>
<path d="M122.755 29.3155C122.755 15.568 149.005 16.034 149.005 16.034L149.82 20.3447C149.82 20.3447 127.796 19.568 126.826 28.1117C125.857 36.6553 130.2 42.0922 141.677 40.733C145.981 39.8398 148.152 32.6165 153.309 31.0243C153.461 32.5117 153.694 33.9896 154.007 35.4515C150.13 35.2184 147.416 42.5971 142.375 43.4515C133.418 45.5097 122.755 43.2184 122.755 29.3155Z" fill="#26361B"/>
<path d="M41.4069 110.636C41.4069 110.636 34.1949 89.8204 50.9066 81.1602C60.6293 75.7682 71.5492 72.9104 82.6627 72.8495L89.6809 99.4126L41.4069 110.636Z" fill="#425E30"/>
<path d="M64.749 73.9369C64.749 73.9369 76.0711 81.7039 76.0711 104.034C76.0711 107.917 99.5295 105.82 97.4745 101.432C99.1806 83.6068 82.5464 69.7815 82.5464 69.7815L64.749 73.9369Z" fill="#121212"/>
<path d="M78.2422 78.3252L80.685 116.306L84.5624 116.073L82.5461 84.6942L147.299 80.5L146.873 73.8592L78.2422 78.3252Z" fill="#422721"/>
<path d="M83.981 106.597L82.5464 84.6942L121.825 82.1311L83.981 106.597Z" fill="#291814"/>
<path d="M126.943 122.908C78.6689 149.859 52.2637 136.112 52.2637 136.112L72.0773 97.2767C72.0773 97.2767 106.586 89.5097 125.159 98.7524C125.159 101.471 127.331 118.636 126.943 122.908Z" fill="#4A6935"/>
<path d="M47.8044 106.053L68.3936 97.432L76.0709 96.8495V117.859L47.8044 106.053Z" fill="#324724"/>
<path d="M37.5207 112.734L35.2043 120.105C33.3785 125.916 36.6012 132.108 42.4024 133.937L62.5227 140.279C68.3238 142.108 74.5067 138.88 76.3325 133.07L78.6489 125.698C80.4746 119.888 77.2519 113.695 71.4508 111.866L51.3305 105.524C45.5293 103.696 39.3465 106.923 37.5207 112.734Z" fill="black"/>
<path d="M132.836 101.471C137.257 100.112 138.11 84.7718 143.616 84.034C145.515 83.568 146.95 88.3835 146.95 88.3835L177.621 89.8592C177.621 89.8592 180.257 91.4126 179.753 93.4709C179.249 95.5291 170.176 97.3544 170.176 97.3544C170.176 97.3544 164.437 115.063 161.568 117.005C158.699 118.947 134.038 119.257 134.038 119.257C134.038 119.257 132.332 102.83 132.836 101.471Z" fill="#121212"/>
<path d="M162.77 96.8495L158.622 116.15L164.67 96.8495H162.77Z" fill="black"/>
<path d="M135.047 120.422L126.943 122.908L125.159 98.9078H134.969L135.047 120.422Z" fill="#425E30"/>
<path d="M235.705 81.9757L195.767 84.5388L195.961 88.3835L153.038 91.6845L147.765 87.6845L146.795 72.8107L152.03 68.2282L234.464 62.8689L235.705 81.9757Z" fill="#0A0A0A"/>
<path d="M296.425 79.8786L236.17 83.801L235.433 79.568L234.464 64.6553L235.201 60.3835L295.184 56.3835L296.425 79.8786Z" fill="#422721"/>
<path d="M223.995 131.684L198.016 133.238L195.457 84.0728L221.746 82.3641L223.995 131.684Z" fill="#141414"/>
<path d="M205.383 132.617L200.924 132.888L198.869 91.8398L203.328 91.568L205.383 132.617Z" fill="#303030"/>
<path d="M213.332 132.15L208.873 132.422L206.779 91.3349L211.238 91.0631L213.332 132.15Z" fill="#303030"/>
<path d="M221.358 131.646L216.899 131.917L214.805 90.8689L219.264 90.5971L221.358 131.646Z" fill="#303030"/>
<path d="M292.16 69.0048L238.69 72.6165L238.574 71.0243L292.044 67.4514L292.16 69.0048Z" fill="#291814"/>
<path d="M331.492 67.6537L296.704 69.8702L297.022 74.8698L331.809 72.6533L331.492 67.6537Z" fill="#0A0A0A"/>
<path d="M346.237 66.4938L331.775 67.3629L332.254 75.3629L346.717 74.4938L346.237 66.4938Z" fill="#0A0A0A"/>
<path d="M43.9661 209.704L130.665 201.82V193.976L43.9661 198.403V209.704Z" fill="#C66327"/>
<path d="M112.945 189.898H104.26C103.702 189.904 103.149 189.788 102.639 189.56C102.129 189.332 101.675 188.996 101.307 188.576C100.939 188.155 100.665 187.66 100.506 187.124C100.346 186.589 100.304 186.025 100.382 185.471L104.027 151.723H121.592L117.947 185.471C117.788 186.689 117.194 187.809 116.274 188.623C115.355 189.437 114.172 189.89 112.945 189.898Z" fill="black"/>
<path d="M119.421 157.238H104.919C104.601 157.246 104.285 157.185 103.993 157.06C103.701 156.934 103.439 156.747 103.226 156.511C103.012 156.276 102.852 155.996 102.756 155.693C102.66 155.389 102.631 155.068 102.67 154.752L103.213 150.053H122.6L122.096 154.752C122.007 155.413 121.692 156.023 121.204 156.476C120.716 156.929 120.085 157.199 119.421 157.238Z" fill="#212121"/>
<path d="M136.559 188.383H127.796C127.238 188.389 126.685 188.274 126.175 188.045C125.666 187.817 125.211 187.481 124.843 187.061C124.475 186.641 124.202 186.146 124.042 185.61C123.883 185.074 123.84 184.51 123.919 183.956L127.602 150.209H145.167L141.483 183.956C141.342 185.168 140.763 186.287 139.857 187.102C138.95 187.917 137.777 188.373 136.559 188.383Z" fill="black"/>
<path d="M142.957 155.84H128.455C128.137 155.848 127.822 155.787 127.529 155.662C127.237 155.536 126.975 155.349 126.762 155.113C126.548 154.877 126.388 154.598 126.292 154.295C126.197 153.991 126.167 153.67 126.206 153.354L126.71 148.655H146.097L145.593 153.354C145.506 154.009 145.196 154.614 144.716 155.066C144.236 155.519 143.614 155.792 142.957 155.84Z" fill="#212121"/>
<path d="M113.682 194.714H100.305V204.85H113.682V194.714Z" fill="#2E160E"/>
<path d="M55.7143 176.772H23.997C19.5642 176.772 15.9707 180.371 15.9707 184.811V239.063C15.9707 243.503 19.5642 247.102 23.997 247.102H55.7143C60.1471 247.102 63.7406 243.503 63.7406 239.063V184.811C63.7406 180.371 60.1471 176.772 55.7143 176.772Z" fill="#324724"/>
<path d="M50.2084 176.772H23.997C19.5642 176.772 15.9707 180.371 15.9707 184.811V198.83C15.9707 203.27 19.5642 206.869 23.997 206.869H50.2084C54.6412 206.869 58.2346 203.27 58.2346 198.83V184.811C58.2346 180.371 54.6412 176.772 50.2084 176.772Z" fill="#4A6935"/>
<path d="M40.9028 201.005H32.7603V204.733H40.9028V201.005Z" fill="#0D1209"/>
<path d="M130.665 201.82L109.417 218.092L110.929 224.733L130.665 201.82Z" fill="#324724"/>
<path d="M186.888 225.704L200.614 204.034L203.948 209.704L186.888 225.704Z" fill="#324724"/>
<path d="M39.8946 328.616H36.909C35.6818 328.736 34.4569 328.368 33.4991 327.59C32.5413 326.812 31.9276 325.688 31.7908 324.461L30.2786 271.762C30.3389 270.533 30.8824 269.377 31.7905 268.548C32.6986 267.718 33.8975 267.282 35.1253 267.335H38.111C39.3155 267.225 40.5155 267.589 41.4564 268.351C42.3974 269.112 43.0054 270.21 43.1516 271.413L44.7026 324.15C44.6422 325.376 44.1054 326.53 43.2069 327.364C42.3084 328.199 41.1196 328.648 39.8946 328.616Z" fill="#324724"/>
<path d="M94.4112 245.898H93.7908V205.549H102.631V239.413C102.37 241.351 101.366 243.111 99.8317 244.321C98.2977 245.532 96.3538 246.097 94.4112 245.898Z" fill="#3F592D"/>
<path d="M97.7847 268.228L100.344 246.481L104.997 245.277L97.7847 268.228Z" fill="#324724"/>
<path d="M242.723 85.3544L245.049 81.199C245.443 80.4507 245.968 79.7798 246.6 79.2184C247.411 78.5923 248.314 78.0946 249.276 77.7427C252.799 76.4499 256.613 76.1674 260.287 76.9272C262.226 73.432 255.596 68.3447 258.892 65.2767C262.469 64.2687 266.152 63.6822 269.865 63.5291C271.241 63.4083 272.624 63.6578 273.871 64.2518C275.119 64.8458 276.185 65.7627 276.96 66.9078L277.503 67.6845C278.33 68.9414 278.775 70.4121 278.783 71.9175V75.801L279.675 75.2573C280.382 74.8413 280.94 74.2111 281.268 73.4574C281.595 72.7037 281.675 71.8654 281.497 71.0631C281.422 70.7461 281.419 70.4166 281.486 70.098C281.553 69.7794 281.69 69.4796 281.886 69.2199C282.083 68.9603 282.334 68.7473 282.621 68.596C282.909 68.4447 283.227 68.3589 283.552 68.3447C283.945 68.318 284.339 68.3726 284.71 68.5051C285.08 68.6375 285.42 68.845 285.707 69.1145C285.995 69.3841 286.224 69.71 286.38 70.0719C286.536 70.4339 286.616 70.8241 286.615 71.2184V75.1019C286.614 75.695 286.477 76.2799 286.215 76.8117C285.952 77.3435 285.572 77.8081 285.103 78.1699L277.077 84.8107C276.066 85.6696 274.795 86.1621 273.471 86.2087C268.818 86.4417 259.396 87.3738 256.604 91.4126C256.643 93.1214 242.723 85.3544 242.723 85.3544Z" fill="#121212"/>
<path d="M276.767 69.7815L263.351 72.3446H277.542L276.767 69.7815Z" fill="black"/>
<path d="M224.615 271.413H187.663C186.849 271.413 186.19 272.073 186.19 272.888V287.257C186.19 288.072 186.849 288.733 187.663 288.733H224.615C225.429 288.733 226.088 288.072 226.088 287.257V272.888C226.088 272.073 225.429 271.413 224.615 271.413Z" fill="#121212"/>
<path d="M263.816 340.655H233.339L229.462 338.558C227.919 337.697 226.152 337.325 224.393 337.491C222.634 337.658 220.968 338.355 219.613 339.49L218.217 340.655H194.371C193.343 340.655 192.357 340.246 191.63 339.518C190.902 338.79 190.494 337.802 190.494 336.772V288.733H222.366L222.095 308.539L256.216 314.442C258.704 314.822 261.043 315.867 262.987 317.466C264.932 319.065 266.411 321.16 267.267 323.529L268.934 334.481C269.084 335.235 269.064 336.013 268.876 336.759C268.687 337.504 268.335 338.198 267.845 338.79C267.354 339.382 266.738 339.856 266.041 340.179C265.344 340.502 264.584 340.665 263.816 340.655Z" fill="#1C1C1C"/>
<path d="M225.585 302.986H204.957C204.322 302.991 203.693 302.87 203.105 302.63C202.517 302.391 201.983 302.037 201.532 301.589C201.081 301.141 200.724 300.609 200.48 300.022C200.236 299.435 200.11 298.806 200.11 298.17C200.11 296.883 200.621 295.648 201.53 294.737C202.439 293.827 203.671 293.316 204.957 293.316H225.585V302.986Z" fill="#0F0F0F"/>
<path d="M295.184 56.3835L296.425 79.8786H298.441L297.356 56.3835H295.184Z" fill="#0A0A0A"/>
<path d="M211.132 68.5487L191.746 69.7839L192.088 75.1711L211.474 73.9358L211.132 68.5487Z" fill="#303030"/>
<path d="M329.542 49.1286L325.633 49.3755L326.854 68.7545L330.762 68.5075L329.542 49.1286Z" fill="#0A0A0A"/>
</svg>
