<svg width="16" height="16" viewBox="0 0 16 16" fill="none" xmlns="http://www.w3.org/2000/svg">
<mask id="mask0_1321_6122" style="mask-type:alpha" maskUnits="userSpaceOnUse" x="0" y="1" width="16" height="14">
<path fill-rule="evenodd" clip-rule="evenodd" d="M15.1463 2.58762C15.4717 2.26218 15.4717 1.73454 15.1463 1.40911C14.8208 1.08368 14.2932 1.08368 13.9678 1.40912L1.96803 13.4091C1.6426 13.7346 1.6426 14.2622 1.96804 14.5876C2.29348 14.9131 2.82112 14.9131 3.14655 14.5876L4.87278 12.8614C6.82003 13.6213 9.04857 13.6769 11.1491 12.8512C13.3673 11.9785 15.1273 10.2257 16 8.00028C15.4301 6.55956 14.4966 5.33026 13.3285 4.40543L15.1463 2.58762ZM11.2876 6.44637L10.1431 7.59094C10.1687 7.72492 10.1818 7.86192 10.1818 8.00028C10.1818 8.57893 9.95195 9.13389 9.54278 9.54306C9.13361 9.95223 8.57865 10.1821 8 10.1821C7.86166 10.1821 7.72467 10.169 7.5907 10.1434L6.44616 11.2879C6.92746 11.5154 7.45748 11.6366 8 11.6366C8.96442 11.6366 9.88935 11.2535 10.5713 10.5716C11.2532 9.88963 11.6364 8.9647 11.6364 8.00028C11.6364 7.45773 11.5151 6.92769 11.2876 6.44637ZM8 2.54574C8.92698 2.54574 9.82894 2.6958 10.6786 2.97626L9.11563 4.53928C8.75841 4.42412 8.38231 4.36392 8 4.36392C7.03558 4.36392 6.11065 4.74703 5.4287 5.42898C4.74675 6.11093 4.36364 7.03586 4.36364 8.00028C4.36364 8.38262 4.42385 8.75875 4.53902 9.11599L2.33337 11.3217C1.33244 10.4462 0.520477 9.32434 0 8.00028C1.29455 4.72755 4.46545 2.54574 8 2.54574ZM6.45722 6.4575C6.82609 6.08863 7.31345 5.86548 7.82983 5.8251L5.82482 7.83016C5.86519 7.31376 6.08834 6.82639 6.45722 6.4575Z" fill="#006FFD"/>
</mask>
<g mask="url(#mask0_1321_6122)">
<rect width="16" height="16" fill="#8F9098"/>
</g>
</svg>
