<svg width="21" height="19" viewBox="0 0 21 19" fill="none" xmlns="http://www.w3.org/2000/svg">
<path d="M19.4453 0.00194539C19.186 0.0209511 18.9314 0.0822365 18.6916 0.183411H18.6883C18.4581 0.275364 17.3634 0.7392 15.6992 1.44228L9.73544 3.97222C5.45611 5.78687 1.24949 7.57386 1.24949 7.57386L1.29958 7.55433C1.29958 7.55433 1.00955 7.65035 0.706595 7.85949C0.519432 7.97945 0.358378 8.13641 0.233178 8.32088C0.0845286 8.54059 -0.0350373 8.87667 0.00939597 9.22414C0.082105 9.81167 0.460192 10.164 0.731639 10.3585C1.00632 10.5554 1.26807 10.6474 1.26807 10.6474H1.27453L5.2194 11.986C5.39633 12.5581 6.42152 15.953 6.66792 16.735C6.81334 17.2021 6.95472 17.4943 7.13165 17.7172C7.21728 17.8311 7.31746 17.9264 7.43783 18.0028C7.50041 18.0395 7.56713 18.0685 7.63657 18.0891L7.59618 18.0793C7.60829 18.0826 7.61799 18.0924 7.62688 18.0956C7.65919 18.1046 7.681 18.1078 7.72221 18.1143C8.3467 18.3047 8.84839 17.9141 8.84839 17.9141L8.87666 17.8914L11.2058 15.7553L15.1094 18.7718L15.1983 18.8101C16.0118 19.1698 16.8359 18.9696 17.2713 18.6164C17.71 18.2608 17.8805 17.8059 17.8805 17.8059L17.9087 17.7327L20.9254 2.16651C21.011 1.78242 21.0328 1.42275 20.9383 1.07365C20.8408 0.720342 20.6158 0.416474 20.3073 0.221657C20.0483 0.0630699 19.748 -0.0134763 19.4453 0.00194539ZM19.3637 1.67013C19.3605 1.72139 19.3702 1.7157 19.3476 1.81416V1.82311L16.3592 17.2273C16.3463 17.2493 16.3245 17.2973 16.2647 17.3453C16.2017 17.3958 16.1516 17.4275 15.889 17.3226L11.1145 13.6355L8.23036 16.2834L8.83627 12.3855L16.6371 5.06182C16.9587 4.76074 16.8512 4.69727 16.8512 4.69727C16.8738 4.32782 16.3657 4.58904 16.3657 4.58904L6.52897 10.7271L6.52574 10.7109L1.81096 9.11184V9.10859L1.79885 9.10615C1.80711 9.10338 1.8152 9.10012 1.82308 9.09638L1.84893 9.08336L1.87398 9.07441C1.87398 9.07441 6.08383 7.28742 10.3632 5.47277C12.5057 4.56381 14.6643 3.64835 16.3245 2.94201C17.3091 2.52456 18.2947 2.10955 19.2813 1.69698C19.3476 1.67094 19.3161 1.67094 19.3637 1.67094V1.67013Z" fill="#4B8FF5"/>
</svg>
