<svg width="41" height="40" viewBox="0 0 41 40" fill="none" xmlns="http://www.w3.org/2000/svg">
<path d="M32.7629 5.40488C32.3695 5.4335 31.9834 5.52578 31.6196 5.67813H31.6147C31.2655 5.8166 29.6052 6.51505 27.0809 7.57376L18.0353 11.3834C11.5446 14.1159 5.16422 16.8068 5.16422 16.8068L5.24019 16.7774C5.24019 16.7774 4.80028 16.922 4.34078 17.2369C4.0569 17.4176 3.81262 17.6539 3.62272 17.9317C3.39725 18.2625 3.2159 18.7686 3.28329 19.2918C3.39358 20.1765 3.96704 20.7071 4.37876 21C4.79538 21.2965 5.1924 21.435 5.1924 21.435H5.2022L11.1856 23.4507C11.454 24.3121 13.0089 29.4243 13.3827 30.6019C13.6032 31.3052 13.8177 31.7451 14.086 32.0809C14.2159 32.2524 14.3679 32.3958 14.5504 32.511C14.6454 32.5662 14.7466 32.6098 14.8519 32.6409L14.7906 32.6262C14.809 32.6311 14.8237 32.6458 14.8372 32.6507C14.8862 32.6641 14.9193 32.669 14.9818 32.6788C15.929 32.9656 16.6899 32.3774 16.6899 32.3774L16.7328 32.3431L20.2655 29.1265L26.1864 33.6689L26.3212 33.7265C27.5551 34.2681 28.805 33.9667 29.4655 33.4349C30.1308 32.8994 30.3894 32.2144 30.3894 32.2144L30.4323 32.1042L35.0078 8.66432C35.1376 8.08595 35.1707 7.54435 35.0274 7.01867C34.8795 6.48665 34.5382 6.02908 34.0704 5.73572C33.6775 5.49692 33.222 5.38165 32.7629 5.40488V5.40488ZM32.6391 7.91686C32.6342 7.99405 32.6489 7.98548 32.6146 8.13374V8.14722L28.082 31.3432C28.0624 31.3763 28.0293 31.4486 27.9387 31.5209C27.8431 31.5969 27.7671 31.6446 27.3689 31.4866L20.127 25.9345L15.7525 29.9218L16.6715 24.0523L28.5036 13.0241C28.9913 12.5708 28.8283 12.4752 28.8283 12.4752C28.8626 11.9189 28.0918 12.3122 28.0918 12.3122L13.1719 21.5551L13.167 21.5306L6.01584 19.1227V19.1178L5.99746 19.1142C6.00999 19.11 6.02227 19.1051 6.03422 19.0995L6.07343 19.0798L6.11142 19.0664C6.11142 19.0664 12.4967 16.3755 18.9875 13.6429C22.2371 12.2742 25.5112 10.8957 28.0294 9.83209C29.5227 9.20348 31.0177 8.57855 32.5142 7.95729C32.6146 7.91808 32.5668 7.91808 32.6391 7.91808V7.91686Z" fill="#050505"/>
</svg>
