<svg width="21" height="20" viewBox="0 0 21 20" fill="none" xmlns="http://www.w3.org/2000/svg">
<path d="M16.6369 2.43505C16.4413 2.44928 16.2493 2.49518 16.0684 2.57094H16.0659C15.8923 2.6398 15.0666 2.98714 13.8112 3.51364L9.31283 5.40819C6.08498 6.7671 2.91196 8.10528 2.91196 8.10528L2.94974 8.09066C2.94974 8.09066 2.73098 8.16257 2.50246 8.31918C2.36129 8.40901 2.2398 8.52655 2.14537 8.66469C2.03324 8.82922 1.94305 9.08089 1.97657 9.3411C2.03141 9.78107 2.3166 10.0449 2.52135 10.1906C2.72854 10.338 2.92598 10.4069 2.92598 10.4069H2.93085L5.90643 11.4093C6.03988 11.8377 6.81318 14.38 6.99904 14.9656C7.10873 15.3154 7.21537 15.5342 7.34882 15.7011C7.41341 15.7865 7.48898 15.8578 7.57977 15.915C7.62697 15.9425 7.6773 15.9642 7.72968 15.9796L7.69921 15.9723C7.70835 15.9748 7.71566 15.9821 7.72237 15.9845C7.74674 15.9912 7.76319 15.9936 7.79427 15.9985C8.26532 16.1411 8.64374 15.8486 8.64374 15.8486L8.66507 15.8316L10.4219 14.2319L13.3664 16.4909L13.4334 16.5195C14.0471 16.7889 14.6686 16.639 14.9971 16.3745C15.328 16.1082 15.4566 15.7676 15.4566 15.7676L15.4779 15.7127L17.7533 4.05599C17.8179 3.76836 17.8343 3.49902 17.763 3.2376C17.6895 2.97302 17.5198 2.74547 17.2871 2.59958C17.0918 2.48082 16.8652 2.4235 16.6369 2.43505ZM16.5754 3.68427C16.5729 3.72266 16.5802 3.71839 16.5632 3.79213V3.79883L14.3091 15.3343C14.2993 15.3508 14.2829 15.3867 14.2378 15.4227C14.1903 15.4604 14.1525 15.4842 13.9544 15.4056L10.353 12.6445L8.17757 14.6274L8.6346 11.7085L14.5187 6.22414C14.7613 5.99868 14.6802 5.95114 14.6802 5.95114C14.6973 5.67449 14.314 5.8701 14.314 5.8701L6.89423 10.4666L6.89179 10.4544L3.33548 9.257V9.25457L3.32634 9.25274C3.33257 9.25067 3.33867 9.24823 3.34462 9.24543L3.36412 9.23568L3.38301 9.22897C3.38301 9.22897 6.55846 7.89078 9.78632 6.53188C11.4024 5.85121 13.0306 5.16566 14.2829 4.63672C15.0256 4.32412 15.769 4.01333 16.5132 3.70438C16.5632 3.68488 16.5394 3.68488 16.5754 3.68488V3.68427Z" fill="white"/>
</svg>
