<svg width="12" height="9" viewBox="0 0 12 9" fill="none" xmlns="http://www.w3.org/2000/svg">
<path d="M8.2488 4.87452C8.2488 5.37168 8.05131 5.84847 7.69977 6.20001C7.34822 6.55155 6.87143 6.74904 6.37428 6.74904C5.87712 6.74904 5.40033 6.55155 5.04879 6.20001C4.69725 5.84847 4.49976 5.37168 4.49976 4.87452C4.49976 4.37737 4.69725 3.90058 5.04879 3.54903C5.40033 3.19749 5.87712 3 6.37428 3C6.87143 3 7.34822 3.19749 7.69977 3.54903C8.05131 3.90058 8.2488 4.37737 8.2488 4.87452Z" fill="#626262"/>
<path d="M-0.000244141 4.875C-0.000244141 4.875 2.24976 0.75 5.99976 0.75C9.74976 0.75 11.9998 4.875 11.9998 4.875C11.9998 4.875 9.74976 9 5.99976 9C2.24976 9 -0.000244141 4.875 -0.000244141 4.875ZM5.99976 7.5C6.69595 7.5 7.36363 7.22344 7.85591 6.73116C8.34819 6.23887 8.62476 5.57119 8.62476 4.875C8.62476 4.17881 8.34819 3.51113 7.85591 3.01884C7.36363 2.52656 6.69595 2.25 5.99976 2.25C5.30356 2.25 4.63588 2.52656 4.1436 3.01884C3.65132 3.51113 3.37476 4.17881 3.37476 4.875C3.37476 5.57119 3.65132 6.23887 4.1436 6.73116C4.63588 7.22344 5.30356 7.5 5.99976 7.5Z" fill="#626262"/>
</svg>
