<svg width="43" height="43" viewBox="0 0 43 43" fill="none" xmlns="http://www.w3.org/2000/svg">
<path d="M12.6347 6.59811C11.2078 6.60367 9.8409 7.17298 8.83191 8.18197C7.82291 9.19097 7.25361 10.5579 7.24805 11.9848V30.243C7.25361 31.6699 7.82291 33.0368 8.83191 34.0458C9.8409 35.0547 11.2078 35.6241 12.6347 35.6296H30.8929C32.3198 35.6241 33.6867 35.0547 34.6957 34.0458C35.7047 33.0368 36.274 31.6699 36.2795 30.243V11.9848C36.274 10.5579 35.7047 9.19097 34.6957 8.18197C33.6867 7.17298 32.3198 6.60367 30.8929 6.59811H12.6347ZM12.6347 9.23734H30.8929C31.2543 9.23524 31.6125 9.30487 31.9468 9.4422C32.281 9.57952 32.5848 9.78182 32.8403 10.0374C33.0958 10.2929 33.2981 10.5966 33.4355 10.9309C33.5728 11.2652 33.6424 11.6234 33.6403 11.9848V30.243C33.6424 30.6043 33.5728 30.9625 33.4355 31.2968C33.2981 31.6311 33.0958 31.9348 32.8403 32.1904C32.5848 32.4459 32.281 32.6482 31.9468 32.7855C31.6125 32.9229 31.2543 32.9925 30.8929 32.9904H12.6347C12.2733 32.9927 11.915 32.9232 11.5806 32.7859C11.2463 32.6486 10.9425 32.4463 10.6869 32.1908C10.4313 31.9352 10.229 31.6314 10.0918 31.297C9.95451 30.9627 9.885 30.6044 9.88727 30.243V11.9848C9.88517 11.6234 9.9548 11.2652 10.0921 10.9309C10.2295 10.5966 10.4318 10.2929 10.6873 10.0374C10.9428 9.78182 11.2465 9.57952 11.5808 9.4422C11.9151 9.30487 12.2733 9.23524 12.6347 9.23734ZM21.393 16.1389C20.4231 16.1297 19.5983 16.1389 19.1351 16.3659C18.825 16.5163 18.5888 16.8555 18.7326 16.8713C18.9134 16.8977 19.3199 16.9848 19.5376 17.2791C19.8147 17.6552 19.8055 18.5063 19.8055 18.5063C19.8055 18.5063 19.9599 20.846 19.4281 21.1403C19.0625 21.3408 18.5624 20.9331 17.4803 19.0724C16.9287 18.1144 16.5117 17.0574 16.5117 17.0574C16.5117 17.0574 16.4326 16.8608 16.29 16.7578C16.1145 16.6298 15.8717 16.5876 15.8717 16.5876L13.2892 16.6034C13.2892 16.6034 12.9026 16.6193 12.764 16.7842C12.6347 16.9386 12.7535 17.2421 12.7535 17.2421C12.7535 17.2421 14.7738 21.969 17.062 24.3509C19.1602 26.5375 21.5421 26.3923 21.5421 26.3923H22.6242C22.6242 26.3923 22.9488 26.3567 23.1138 26.1812C23.2695 26.0162 23.2642 25.7061 23.2642 25.7061C23.2642 25.7061 23.2431 24.2585 23.9134 24.0421C24.5785 23.8349 25.4231 25.4435 26.3257 26.0624C27.0119 26.5309 27.5318 26.4279 27.5318 26.4279L29.9454 26.3923C29.9454 26.3923 31.203 26.3145 30.6052 25.3195C30.559 25.2429 30.2595 24.5884 28.8171 23.2477C27.3009 21.8463 27.5028 22.0732 29.3265 19.6451C30.435 18.1658 30.8784 17.2632 30.7385 16.8713C30.6065 16.5058 29.791 16.6034 29.791 16.6034L27.0739 16.6193C27.0739 16.6193 26.8733 16.5929 26.7242 16.6813C26.6217 16.7574 26.54 16.8582 26.4867 16.9742C26.4867 16.9742 26.0539 18.1183 25.4811 19.0935C24.275 21.1442 23.7854 21.2577 23.5901 21.1297C23.1309 20.8301 23.2444 19.9328 23.2444 19.2994C23.2444 17.3041 23.5479 16.4794 22.6572 16.2643C22.3629 16.1917 22.1465 16.1455 21.3943 16.1389H21.393Z" fill="#050505"/>
</svg>
