<svg width="28" height="28" viewBox="0 0 28 28" fill="none" xmlns="http://www.w3.org/2000/svg">
<path d="M7.94675 4.375C7.0006 4.37869 6.09425 4.75618 5.42521 5.42521C4.75618 6.09425 4.37869 7.0006 4.375 7.94675V20.0532C4.37869 20.9994 4.75618 21.9058 5.42521 22.5748C6.09425 23.2438 7.0006 23.6213 7.94675 23.625H20.0532C20.9994 23.6213 21.9058 23.2438 22.5748 22.5748C23.2438 21.9058 23.6213 20.9994 23.625 20.0532V7.94675C23.6213 7.0006 23.2438 6.09425 22.5748 5.42521C21.9058 4.75618 20.9994 4.37869 20.0532 4.375H7.94675ZM7.94675 6.125H20.0532C20.2929 6.12361 20.5304 6.16978 20.752 6.26083C20.9737 6.35189 21.1751 6.48603 21.3445 6.65547C21.514 6.82492 21.6481 7.0263 21.7392 7.24795C21.8302 7.46961 21.8764 7.70712 21.875 7.94675V20.0532C21.8764 20.2929 21.8302 20.5304 21.7392 20.752C21.6481 20.9737 21.514 21.1751 21.3445 21.3445C21.1751 21.514 20.9737 21.6481 20.752 21.7392C20.5304 21.8302 20.2929 21.8764 20.0532 21.875H7.94675C7.70709 21.8765 7.46952 21.8304 7.24781 21.7394C7.02611 21.6484 6.82468 21.5143 6.65521 21.3448C6.48574 21.1753 6.35161 20.9739 6.2606 20.7522C6.16958 20.5305 6.12349 20.2929 6.125 20.0532V7.94675C6.12361 7.70712 6.16978 7.46961 6.26083 7.24795C6.35189 7.0263 6.48603 6.82492 6.65547 6.65547C6.82492 6.48603 7.0263 6.35189 7.24795 6.26083C7.46961 6.16978 7.70712 6.12361 7.94675 6.125ZM13.7541 10.7012C13.111 10.6951 12.5641 10.7013 12.257 10.8518C12.0514 10.9515 11.8948 11.1764 11.9901 11.1869C12.11 11.2044 12.3795 11.2621 12.5239 11.4572C12.7076 11.7066 12.7015 12.271 12.7015 12.271C12.7015 12.271 12.8039 13.8224 12.4513 14.0175C12.2089 14.1505 11.8772 13.8801 11.1597 12.6464C10.794 12.0111 10.5175 11.3102 10.5175 11.3102C10.5175 11.3102 10.465 11.1799 10.3705 11.1116C10.2541 11.0268 10.0931 10.9987 10.0931 10.9987L8.38075 11.0092C8.38075 11.0092 8.12438 11.0197 8.0325 11.1291C7.94675 11.2315 8.0255 11.4327 8.0255 11.4327C8.0255 11.4327 9.36513 14.567 10.8824 16.1464C12.2736 17.5962 13.853 17.5 13.853 17.5H14.5705C14.5705 17.5 14.7858 17.4764 14.8951 17.36C14.9984 17.2506 14.9949 17.045 14.9949 17.045C14.9949 17.045 14.9809 16.0851 15.4254 15.9416C15.8664 15.8042 16.4264 16.8709 17.0249 17.2812C17.4799 17.5919 17.8246 17.5236 17.8246 17.5236L19.425 17.5C19.425 17.5 20.2589 17.4484 19.8625 16.7886C19.8319 16.7379 19.6332 16.3039 18.6769 15.4149C17.6715 14.4856 17.8054 14.6361 19.0146 13.0261C19.7496 12.0452 20.0436 11.4467 19.9509 11.1869C19.8634 10.9445 19.3226 11.0092 19.3226 11.0092L17.521 11.0197C17.521 11.0197 17.388 11.0022 17.2891 11.0609C17.2211 11.1114 17.167 11.1782 17.1316 11.2551C17.1316 11.2551 16.8446 12.0138 16.4649 12.6604C15.6651 14.0201 15.3405 14.0954 15.211 14.0105C14.9065 13.8119 14.9817 13.2169 14.9817 12.7969C14.9817 11.4739 15.183 10.927 14.5924 10.7844C14.3973 10.7362 14.2537 10.7056 13.755 10.7012H13.7541Z" fill="white"/>
</svg>
