<svg width="21" height="22" viewBox="0 0 21 22" fill="none" xmlns="http://www.w3.org/2000/svg">
<path d="M5.95982 3.53125C5.2502 3.53402 4.57044 3.81713 4.06867 4.31891C3.56689 4.82069 3.28377 5.50045 3.28101 6.21006V15.2899C3.28377 15.9995 3.56689 16.6793 4.06867 17.1811C4.57044 17.6829 5.2502 17.966 5.95982 17.9687H15.0397C15.7493 17.966 16.4291 17.6829 16.9308 17.1811C17.4326 16.6793 17.7157 15.9995 17.7185 15.2899V6.21006C17.7157 5.50045 17.4326 4.82069 16.9308 4.31891C16.4291 3.81713 15.7493 3.53402 15.0397 3.53125H5.95982ZM5.95982 4.84375H15.0397C15.2194 4.84271 15.3976 4.87733 15.5638 4.94563C15.73 5.01392 15.8811 5.11452 16.0082 5.2416C16.1352 5.36869 16.2358 5.51972 16.3041 5.68596C16.3724 5.8522 16.407 6.03034 16.406 6.21006V15.2899C16.407 15.4697 16.3724 15.6478 16.3041 15.814C16.2358 15.9803 16.1352 16.1313 16.0082 16.2584C15.8811 16.3855 15.73 16.4861 15.5638 16.5544C15.3976 16.6227 15.2194 16.6573 15.0397 16.6562H5.95982C5.78007 16.6574 5.6019 16.6228 5.43562 16.5546C5.26934 16.4863 5.11826 16.3857 4.99116 16.2586C4.86406 16.1315 4.76346 15.9804 4.6952 15.8141C4.62694 15.6479 4.59237 15.4697 4.59351 15.2899V6.21006C4.59246 6.03034 4.62709 5.8522 4.69538 5.68596C4.76368 5.51972 4.86428 5.36869 4.99136 5.2416C5.11844 5.11452 5.26948 5.01392 5.43572 4.94563C5.60196 4.87733 5.7801 4.84271 5.95982 4.84375ZM10.3153 8.27594C9.833 8.27134 9.42285 8.27594 9.19251 8.38881C9.03829 8.46362 8.92082 8.63228 8.99235 8.64016C9.08226 8.65328 9.28438 8.69659 9.39266 8.84294C9.53047 9.02997 9.52588 9.45325 9.52588 9.45325C9.52588 9.45325 9.60266 10.6168 9.33819 10.7631C9.15641 10.8629 8.90769 10.6601 8.36957 9.73478C8.09526 9.25834 7.88788 8.73269 7.88788 8.73269C7.88788 8.73269 7.84851 8.63491 7.77763 8.58372C7.69035 8.52006 7.5696 8.49906 7.5696 8.49906L6.28532 8.50694C6.28532 8.50694 6.09304 8.51481 6.02413 8.59684C5.95982 8.67362 6.01888 8.82456 6.01888 8.82456C6.01888 8.82456 7.0236 11.1752 8.16154 12.3598C9.20497 13.4472 10.3895 13.375 10.3895 13.375H10.9276C10.9276 13.375 11.0891 13.3573 11.1711 13.27C11.2485 13.188 11.2459 13.0337 11.2459 13.0337C11.2459 13.0337 11.2354 12.3138 11.5688 12.2062C11.8995 12.1032 12.3195 12.9032 12.7684 13.2109C13.1097 13.4439 13.3682 13.3927 13.3682 13.3927L14.5685 13.375C14.5685 13.375 15.1939 13.3363 14.8966 12.8415C14.8737 12.8034 14.7247 12.4779 14.0074 11.8112C13.2534 11.1142 13.3538 11.2271 14.2607 10.0196C14.812 9.28394 15.0325 8.83506 14.9629 8.64016C14.8973 8.45837 14.4917 8.50694 14.4917 8.50694L13.1405 8.51481C13.1405 8.51481 13.0408 8.50169 12.9666 8.54566C12.9156 8.58352 12.875 8.63363 12.8485 8.69134C12.8485 8.69134 12.6332 9.26031 12.3484 9.74528C11.7486 10.7651 11.5051 10.8215 11.408 10.7579C11.1796 10.6089 11.2361 10.1627 11.2361 9.84766C11.2361 8.85541 11.387 8.44525 10.944 8.33828C10.7977 8.30219 10.6901 8.27922 10.316 8.27594H10.3153Z" fill="white"/>
</svg>
