<svg width="18" height="19" viewBox="0 0 18 19" fill="none" xmlns="http://www.w3.org/2000/svg">
<path d="M14.2871 4.43254C13.5995 3.73799 12.7805 3.1873 11.8778 2.81258C10.9752 2.43787 10.0069 2.24664 9.02961 2.25004C4.93461 2.25004 1.59711 5.58754 1.59711 9.68254C1.59711 10.995 1.94211 12.27 2.58711 13.395L1.53711 17.25L5.47461 16.215C6.56211 16.8075 7.78461 17.1225 9.02961 17.1225C13.1246 17.1225 16.4621 13.785 16.4621 9.69004C16.4621 7.70254 15.6896 5.83504 14.2871 4.43254ZM9.02961 15.8625C7.91961 15.8625 6.83211 15.5625 5.87961 15L5.65461 14.865L3.31461 15.48L3.93711 13.2L3.78711 12.9675C3.17042 11.9828 2.84296 10.8445 2.84211 9.68254C2.84211 6.27754 5.61711 3.50254 9.02211 3.50254C10.6721 3.50254 12.2246 4.14754 13.3871 5.31754C13.9627 5.89052 14.4189 6.57204 14.7292 7.32261C15.0394 8.07319 15.1976 8.87788 15.1946 9.69004C15.2096 13.095 12.4346 15.8625 9.02961 15.8625ZM12.4196 11.2425C12.2321 11.1525 11.3171 10.7025 11.1521 10.635C10.9796 10.575 10.8596 10.545 10.7321 10.725C10.6046 10.9125 10.2521 11.3325 10.1471 11.4525C10.0421 11.58 9.92961 11.595 9.74211 11.4975C9.55461 11.4075 8.95461 11.205 8.24961 10.575C7.69461 10.08 7.32711 9.47254 7.21461 9.28504C7.10961 9.09754 7.19961 9.00004 7.29711 8.90254C7.37961 8.82004 7.48461 8.68504 7.57461 8.58004C7.66461 8.47504 7.70211 8.39254 7.76211 8.27254C7.82211 8.14504 7.79211 8.04004 7.74711 7.95005C7.70211 7.86004 7.32711 6.94504 7.17711 6.57004C7.02711 6.21004 6.86961 6.25504 6.75711 6.24754H6.39711C6.26961 6.24754 6.07461 6.29254 5.90211 6.48004C5.73711 6.66754 5.25711 7.11754 5.25711 8.03254C5.25711 8.94754 5.92461 9.83254 6.01461 9.95254C6.10461 10.08 7.32711 11.955 9.18711 12.7575C9.62961 12.9525 9.97461 13.065 10.2446 13.1475C10.6871 13.29 11.0921 13.2675 11.4146 13.2225C11.7746 13.17 12.5171 12.7725 12.6671 12.3375C12.8246 11.9025 12.8246 11.535 12.7721 11.4525C12.7196 11.37 12.6071 11.3325 12.4196 11.2425Z" fill="white"/>
</svg>
