<svg width="37" height="37" viewBox="0 0 37 37" fill="none" xmlns="http://www.w3.org/2000/svg">
<path d="M28.7293 7.42137C27.3466 6.02473 25.6997 4.91737 23.8846 4.16389C22.0695 3.4104 20.1226 3.02587 18.1573 3.03271C9.92289 3.03271 3.21172 9.74389 3.21172 17.9783C3.21172 20.6175 3.90545 23.1813 5.20245 25.4435L3.09106 33.1953L11.0087 31.1141C13.1955 32.3055 15.6538 32.9389 18.1573 32.9389C26.3917 32.9389 33.1029 26.2278 33.1029 17.9934C33.1029 13.9968 31.5495 10.2416 28.7293 7.42137ZM18.1573 30.4053C15.9253 30.4053 13.7385 29.802 11.8231 28.6709L11.3707 28.3995L6.66533 29.6361L7.91708 25.0514L7.61545 24.5839C6.37539 22.6037 5.71693 20.3147 5.71521 17.9783C5.71521 11.1314 11.2953 5.55129 18.1422 5.55129C21.4601 5.55129 24.5819 6.84828 26.9195 9.20097C28.077 10.3531 28.9943 11.7236 29.6182 13.2328C30.2421 14.7421 30.5602 16.3602 30.5541 17.9934C30.5843 24.8403 25.0042 30.4053 18.1573 30.4053ZM24.974 21.1152C24.597 20.9342 22.7571 20.0293 22.4253 19.8936C22.0784 19.773 21.8371 19.7126 21.5807 20.0746C21.3244 20.4516 20.6155 21.2962 20.4044 21.5375C20.1933 21.7939 19.967 21.824 19.59 21.628C19.213 21.447 18.0065 21.0398 16.5888 19.773C15.4728 18.7776 14.7338 17.556 14.5076 17.179C14.2965 16.8019 14.4774 16.6059 14.6735 16.4098C14.8394 16.2439 15.0505 15.9725 15.2315 15.7613C15.4125 15.5502 15.4879 15.3843 15.6085 15.143C15.7292 14.8866 15.6689 14.6755 15.5784 14.4945C15.4879 14.3135 14.7338 12.4736 14.4322 11.7195C14.1306 10.9956 13.8139 11.0861 13.5876 11.071H12.8637C12.6074 11.071 12.2153 11.1615 11.8684 11.5386C11.5366 11.9156 10.5714 12.8205 10.5714 14.6604C10.5714 16.5003 11.9136 18.2799 12.0946 18.5212C12.2756 18.7776 14.7338 22.5479 18.474 24.1616C19.3638 24.5537 20.0575 24.7799 20.6005 24.9458C21.4902 25.2324 22.3046 25.1871 22.9531 25.0967C23.677 24.9911 25.1701 24.1918 25.4717 23.3171C25.7884 22.4423 25.7884 21.7034 25.6829 21.5375C25.5773 21.3716 25.3511 21.2962 24.974 21.1152Z" fill="#050505"/>
</svg>
